<svg width="24" height="24" viewBox="0 0 24 24" fill="none" xmlns="http://www.w3.org/2000/svg">
<g clip-path="url(#clip0_11947_127563)">
<path fill-rule="evenodd" clip-rule="evenodd" d="M6.97354 3.35309C6.13794 2.95983 5.43505 2.62903 4.88372 2.43938C4.3933 2.27069 3.62941 2.06084 2.96218 2.47711C2.67857 2.65405 2.44383 2.89925 2.27943 3.19031C1.89264 3.87505 2.13558 4.62907 2.3255 5.11166C2.539 5.6542 2.90012 6.342 3.32943 7.15966L5.87073 12.0002L3.32943 16.8408C2.90013 17.6585 2.539 18.3463 2.3255 18.8888C2.13558 19.3714 1.89264 20.1254 2.27943 20.8102C2.44383 21.1012 2.67857 21.3464 2.96218 21.5233C3.62941 21.9396 4.39331 21.7298 4.88372 21.5611C5.43504 21.3714 6.13792 21.0406 6.97351 20.6474L23.426 12.905C23.7765 12.7401 24.0002 12.3876 24.0002 12.0002C24.0002 11.6129 23.7765 11.2603 23.426 11.0954L6.97354 3.35309ZM4.18658 4.37928C4.17633 4.35323 4.16702 4.32877 4.15856 4.30583C4.18185 4.31328 4.20669 4.32151 4.23316 4.33062C4.66845 4.48035 5.27149 4.76252 6.17797 5.18909L18.5266 11.0002H7.6046L5.12901 6.28482C4.66333 5.3978 4.35514 4.80763 4.18658 4.37928ZM7.6046 13.0002L5.12901 17.7156C4.66333 18.6027 4.35514 19.1928 4.18658 19.6212C4.17633 19.6472 4.16702 19.6717 4.15856 19.6946C4.18185 19.6872 4.20669 19.6789 4.23316 19.6698C4.66845 19.5201 5.2715 19.2379 6.17797 18.8114L18.5266 13.0002H7.6046Z" fill="black"/>
</g>
<defs>
<clipPath id="clip0_11947_127563">
<rect width="24" height="24" fill="white"/>
</clipPath>
</defs>
</svg>
