<svg width="24" height="24" viewBox="0 0 24 24" fill="none" xmlns="http://www.w3.org/2000/svg">
<path d="M10.3391 3.34904L8.49992 7.74998L3.88458 8.06609C2.20488 8.18114 1.36503 8.23867 1.09554 8.67925C1.01223 8.81546 0.962744 8.96964 0.951224 9.12889C0.913963 9.64401 1.56346 10.1796 2.86245 11.2507L6.49992 14.25L5.27734 18.8829C4.84805 20.5097 4.63341 21.3231 4.96415 21.7195C5.06641 21.8421 5.19652 21.9384 5.34362 22.0005C5.8194 22.201 6.53466 21.7582 7.9652 20.8727L11.9999 18.375L16.0346 20.8727C17.4652 21.7582 18.1804 22.201 18.6562 22.0005C18.8033 21.9384 18.9334 21.8421 19.0357 21.7195C19.3664 21.3231 19.1518 20.5097 18.7225 18.8829L17.4999 14.25L21.1374 11.2507C22.4364 10.1796 23.0859 9.64401 23.0486 9.12889C23.0371 8.96964 22.9876 8.81546 22.9043 8.67925C22.6348 8.23867 21.795 8.18114 20.1153 8.06609L15.4999 7.74998L13.6607 3.34904C13.0381 1.8591 12.7267 1.11413 12.2328 0.995867C12.0797 0.959223 11.9201 0.959223 11.7671 0.995867C11.2731 1.11413 10.9618 1.8591 10.3391 3.34904Z" fill="black"/>
</svg>
