<svg width="24" height="24" viewBox="0 0 24 24" fill="none" xmlns="http://www.w3.org/2000/svg">
<path fill-rule="evenodd" clip-rule="evenodd" d="M12 1C12.4066 1 12.7727 1.24617 12.9261 1.6227L15.4409 7.79527L22.0688 8.25237C22.4775 8.28055 22.8277 8.55513 22.9525 8.94528C23.0773 9.33543 22.9516 9.76226 22.6352 10.0224L17.5052 14.2404L19.2171 20.7455C19.3213 21.1414 19.1737 21.5608 18.8445 21.8041C18.5153 22.0475 18.071 22.0656 17.7231 21.8499L12 18.3016L6.27699 21.8499C5.92907 22.0656 5.4848 22.0475 5.15561 21.8041C4.82642 21.5608 4.67879 21.1414 4.78297 20.7455L6.49486 14.2404L1.36494 10.0224C1.04853 9.76226 0.922782 9.33543 1.04761 8.94528C1.17243 8.55513 1.52258 8.28055 1.93125 8.25237L8.55921 7.79527L11.074 1.6227C11.2274 1.24617 11.5935 1 12 1ZM12 4.65043L10.1761 9.1273C10.0322 9.48072 9.69957 9.72137 9.31885 9.74763L4.57751 10.0746L8.26015 13.1026C8.56188 13.3507 8.69153 13.7517 8.59212 14.1295L7.3557 18.8279L11.4731 16.2751C11.7959 16.075 12.2042 16.075 12.527 16.2751L16.6444 18.8279L15.408 14.1295C15.3086 13.7517 15.4382 13.3507 15.7399 13.1026L19.4226 10.0746L14.6812 9.74763C14.3005 9.72137 13.9679 9.48072 13.824 9.1273L12 4.65043Z" fill="black"/>
</svg>
